<?xml version="1.0" encoding="UTF-8" standalone="no"?>
<!DOCTYPE svg PUBLIC "-//W3C//DTD SVG 1.1//EN"
 "http://www.w3.org/Graphics/SVG/1.1/DTD/svg11.dtd">
<!-- Generated by graphviz version 10.0.1 (0)
 -->
<!-- Title: G Pages: 1 -->
<svg width="1394px" height="1069px"
 viewBox="0.00 0.00 1394.00 1068.50" xmlns="http://www.w3.org/2000/svg" xmlns:xlink="http://www.w3.org/1999/xlink">
<g id="graph0" class="graph" transform="scale(1 1) rotate(0) translate(4 1064.5)">
<title>G</title>
<text text-anchor="middle" x="693" y="-7.95" font-family="Times,serif" font-size="14.00">Deterload Dependency Graph</text>
<g id="clust1" class="cluster">
<title>cluster_builder</title>
<polygon fill="#f5f5f5" stroke="#666666" stroke-width="2" points="248,-366.5 248,-992.5 1253,-992.5 1253,-366.5 248,-366.5"/>
<text text-anchor="middle" x="750.5" y="-975.2" font-family="Times,serif" font-size="14.00">builder</text>
</g>
<g id="clust2" class="cluster">
<title>cluster_imgBuilder</title>
<polygon fill="#cce5ff" stroke="#666666" stroke-width="2" points="256,-675.75 256,-959.25 1234,-959.25 1234,-675.75 256,-675.75"/>
<text text-anchor="middle" x="745" y="-941.95" font-family="Times,serif" font-size="14.00">imgBuilder</text>
</g>
<g id="clust3" class="cluster">
<title>cluster_gcpt</title>
<polygon fill="#dae8fc" stroke="#6c8ebf" stroke-width="3" points="264,-683.75 264,-926 1215,-926 1215,-683.75 264,-683.75"/>
<text text-anchor="middle" x="739.5" y="-908.7" font-family="Times,serif" font-size="14.00">gcpt</text>
</g>
<g id="clust4" class="cluster">
<title>cluster_opensbi</title>
<polygon fill="#dae8fc" stroke="#6c8ebf" stroke-width="2" points="272,-691.75 272,-892.75 1199,-892.75 1199,-691.75 272,-691.75"/>
<text text-anchor="middle" x="735.5" y="-875.45" font-family="Times,serif" font-size="14.00">opensbi</text>
</g>
<g id="clust5" class="cluster">
<title>cluster_linux</title>
<polygon fill="#dae8fc" stroke="#6c8ebf" stroke-width="2" points="362,-699.75 362,-859.5 1191,-859.5 1191,-699.75 362,-699.75"/>
<text text-anchor="middle" x="776.5" y="-842.2" font-family="Times,serif" font-size="14.00">linux</text>
</g>
<g id="clust6" class="cluster">
<title>cluster_initramfs</title>
<polygon fill="#dae8fc" stroke="#6c8ebf" stroke-width="2" points="381,-707.75 381,-826.25 1183,-826.25 1183,-707.75 381,-707.75"/>
<text text-anchor="middle" x="782" y="-808.95" font-family="Times,serif" font-size="14.00">initramfs</text>
</g>
<g id="clust7" class="cluster">
<title>cluster_base</title>
<polygon fill="#dae8fc" stroke="#6c8ebf" stroke-width="2" points="400,-715.75 400,-793 604,-793 604,-715.75 400,-715.75"/>
<text text-anchor="middle" x="502" y="-775.7" font-family="Times,serif" font-size="14.00">base</text>
</g>
<g id="clust8" class="cluster">
<title>cluster_overlays</title>
<polygon fill="#dae8fc" stroke="#6c8ebf" stroke-width="2" points="612,-715.75 612,-793 1175,-793 1175,-715.75 612,-715.75"/>
<text text-anchor="middle" x="893.5" y="-775.7" font-family="Times,serif" font-size="14.00">overlays</text>
</g>
<g id="clust9" class="cluster">
<title>cluster_cptBuilder</title>
<polygon fill="#f8cecc" stroke="#b85450" stroke-width="2" points="997,-374.5 997,-667.75 1245,-667.75 1245,-374.5 997,-374.5"/>
<text text-anchor="middle" x="1121" y="-650.45" font-family="Times,serif" font-size="14.00">cptBuilder</text>
</g>
<g id="clust10" class="cluster">
<title>cluster_inputs</title>
<polygon fill="none" stroke="none" stroke-width="2" points="1074,-1000.5 1074,-1052.5 1188,-1052.5 1188,-1000.5 1074,-1000.5"/>
</g>
<g id="clust11" class="cluster">
<title>cluster_outputs</title>
<polygon fill="none" stroke="none" stroke-width="2" points="8,-33.25 8,-358.5 1378,-358.5 1378,-33.25 8,-33.25"/>
</g>
<g id="clust12" class="cluster">
<title>cluster_output</title>
<polygon fill="#ffe6cc" stroke="#d79b00" stroke-width="2" points="222,-41.25 222,-350.5 1126,-350.5 1126,-41.25 222,-41.25"/>
<text text-anchor="middle" x="674" y="-333.2" font-family="Times,serif" font-size="14.00">output</text>
</g>
<g id="clust13" class="cluster">
<title>cluster__level0_</title>
<polygon fill="none" stroke="none" stroke-width="2" points="1004,-265.25 1004,-317.25 1118,-317.25 1118,-265.25 1004,-265.25"/>
</g>
<g id="clust14" class="cluster">
<title>cluster__level1_</title>
<polygon fill="none" stroke="none" stroke-width="2" points="230,-193.25 230,-245.25 1118,-245.25 1118,-193.25 230,-193.25"/>
</g>
<g id="clust15" class="cluster">
<title>cluster__level2_</title>
<polygon fill="none" stroke="none" stroke-width="2" points="230,-121.25 230,-173.25 608,-173.25 608,-121.25 230,-121.25"/>
</g>
<g id="clust16" class="cluster">
<title>cluster__level3_</title>
<polygon fill="none" stroke="none" stroke-width="2" points="365,-49.25 365,-101.25 1118,-101.25 1118,-49.25 365,-49.25"/>
</g>
<!-- cluster_builder_connect_node_ -->
<g id="node1" class="node">
<title>cluster_builder_connect_node_</title>
</g>
<!-- cluster_imgBuilder_connect_node_ -->
<g id="node2" class="node">
<title>cluster_imgBuilder_connect_node_</title>
</g>
<!-- cluster_cptBuilderqemu -->
<g id="node19" class="node">
<title>cluster_cptBuilderqemu</title>
<polygon fill="none" stroke="black" points="1165,-634.5 1111,-634.5 1111,-598.5 1165,-598.5 1165,-634.5"/>
<text text-anchor="middle" x="1138" y="-611.83" font-family="Times,serif" font-size="14.00">qemu</text>
</g>
<!-- cluster_imgBuilder_connect_node_&#45;&gt;cluster_cptBuilderqemu -->
<g id="edge61" class="edge">
<title>cluster_imgBuilder_connect_node_&#45;&gt;cluster_cptBuilderqemu</title>
<path fill="none" stroke="none" stroke-width="2" d="M1179.59,-675.75C1171.9,-664.97 1164.3,-654.33 1157.74,-645.15"/>
<polygon fill="none" stroke="none" stroke-width="2" points="1160.85,-643.49 1152.2,-637.38 1155.16,-647.55 1160.85,-643.49"/>
</g>
<!-- cluster__level2_img -->
<g id="node45" class="node">
<title>cluster__level2_img</title>
<polygon fill="#cce5ff" stroke="#666666" points="600,-165.25 546,-165.25 546,-129.25 600,-129.25 600,-165.25"/>
<text text-anchor="middle" x="573" y="-142.57" font-family="Times,serif" font-size="14.00">img</text>
</g>
<!-- cluster_imgBuilder_connect_node_&#45;&gt;cluster__level2_img -->
<g id="edge53" class="edge">
<title>cluster_imgBuilder_connect_node_&#45;&gt;cluster__level2_img</title>
<path fill="none" stroke="#666666" stroke-width="2" stroke-opacity="0.066667" d="M1153.51,-675.75C1006.08,-541.53 678.09,-242.92 593.31,-165.74"/>
</g>
<!-- cluster_gcpt_connect_node_ -->
<g id="node3" class="node">
<title>cluster_gcpt_connect_node_</title>
</g>
<!-- cluster_cptBuilderstage1&#45;profiling -->
<g id="node21" class="node">
<title>cluster_cptBuilderstage1&#45;profiling</title>
<polygon fill="none" stroke="black" points="1137.25,-562.5 1024.75,-562.5 1024.75,-526.5 1137.25,-526.5 1137.25,-562.5"/>
<text text-anchor="middle" x="1081" y="-539.83" font-family="Times,serif" font-size="14.00">stage1&#45;profiling</text>
</g>
<!-- cluster_gcpt_connect_node_&#45;&gt;cluster_cptBuilderstage1&#45;profiling -->
<g id="edge8" class="edge">
<title>cluster_gcpt_connect_node_&#45;&gt;cluster_cptBuilderstage1&#45;profiling</title>
<path fill="none" stroke="#6c8ebf" stroke-width="3" d="M1169.95,-683.75C1147.22,-648.17 1119.03,-604.03 1100.55,-575.11"/>
<polygon fill="#6c8ebf" stroke="#6c8ebf" stroke-width="3" points="1103.51,-573.24 1095.18,-566.7 1097.61,-577.01 1103.51,-573.24"/>
</g>
<!-- cluster_cptBuilderstage3&#45;checkpoint -->
<g id="node24" class="node">
<title>cluster_cptBuilderstage3&#45;checkpoint</title>
<polygon fill="none" stroke="black" points="1134.88,-418.5 1005.12,-418.5 1005.12,-382.5 1134.88,-382.5 1134.88,-418.5"/>
<text text-anchor="middle" x="1070" y="-395.82" font-family="Times,serif" font-size="14.00">stage3&#45;checkpoint</text>
</g>
<!-- cluster_gcpt_connect_node_&#45;&gt;cluster_cptBuilderstage3&#45;checkpoint -->
<g id="edge9" class="edge">
<title>cluster_gcpt_connect_node_&#45;&gt;cluster_cptBuilderstage3&#45;checkpoint</title>
<path fill="none" stroke="#6c8ebf" stroke-width="3" d="M1183.72,-683.75C1154.6,-611.23 1105.79,-489.66 1082.76,-432.29"/>
<polygon fill="#6c8ebf" stroke="#6c8ebf" stroke-width="3" points="1086.08,-431.17 1079.11,-423.19 1079.59,-433.77 1086.08,-431.17"/>
</g>
<!-- cluster__level2_gcpt -->
<g id="node44" class="node">
<title>cluster__level2_gcpt</title>
<polygon fill="#dae8fc" stroke="#6c8ebf" points="510,-165.25 456,-165.25 456,-129.25 510,-129.25 510,-165.25"/>
<text text-anchor="middle" x="483" y="-142.57" font-family="Times,serif" font-size="14.00">gcpt</text>
</g>
<!-- cluster_gcpt_connect_node_&#45;&gt;cluster__level2_gcpt -->
<g id="edge52" class="edge">
<title>cluster_gcpt_connect_node_&#45;&gt;cluster__level2_gcpt</title>
<path fill="none" stroke="#6c8ebf" stroke-width="3" stroke-opacity="0.066667" d="M1136.37,-683.75C978.11,-553.8 601.43,-244.49 505.52,-165.74"/>
</g>
<!-- cluster_opensbi_connect_node_ -->
<g id="node4" class="node">
<title>cluster_opensbi_connect_node_</title>
</g>
<!-- cluster__level2_opensbi -->
<g id="node43" class="node">
<title>cluster__level2_opensbi</title>
<polygon fill="#dae8fc" stroke="#6c8ebf" points="293.75,-165.25 238.25,-165.25 238.25,-129.25 293.75,-129.25 293.75,-165.25"/>
<text text-anchor="middle" x="266" y="-142.57" font-family="Times,serif" font-size="14.00">opensbi</text>
</g>
<!-- cluster_opensbi_connect_node_&#45;&gt;cluster__level2_opensbi -->
<g id="edge51" class="edge">
<title>cluster_opensbi_connect_node_&#45;&gt;cluster__level2_opensbi</title>
<path fill="none" stroke="#000000" stroke-width="2" stroke-opacity="0.066667" d="M278.82,-691.75C275.88,-566.93 268.32,-245.9 266.43,-165.65"/>
</g>
<!-- cluster_opensbidts -->
<g id="node5" class="node">
<title>cluster_opensbidts</title>
<polygon fill="none" stroke="black" points="352,-759.75 298,-759.75 298,-723.75 352,-723.75 352,-759.75"/>
<text text-anchor="middle" x="325" y="-737.08" font-family="Times,serif" font-size="14.00">dts</text>
</g>
<!-- cluster__level2_dts -->
<g id="node42" class="node">
<title>cluster__level2_dts</title>
<polygon fill="#dae8fc" stroke="#6c8ebf" points="366,-165.25 312,-165.25 312,-129.25 366,-129.25 366,-165.25"/>
<text text-anchor="middle" x="339" y="-142.57" font-family="Times,serif" font-size="14.00">dts</text>
</g>
<!-- cluster_opensbidts&#45;&gt;cluster__level2_dts -->
<g id="edge50" class="edge">
<title>cluster_opensbidts&#45;&gt;cluster__level2_dts</title>
<path fill="none" stroke="#000000" stroke-opacity="0.066667" d="M325.43,-723.31C327.52,-634.72 336.5,-253.59 338.57,-165.48"/>
</g>
<!-- cluster_linux_connect_node_ -->
<g id="node6" class="node">
<title>cluster_linux_connect_node_</title>
</g>
<!-- cluster__level2_linux -->
<g id="node41" class="node">
<title>cluster__level2_linux</title>
<polygon fill="#dae8fc" stroke="#6c8ebf" points="438,-165.25 384,-165.25 384,-129.25 438,-129.25 438,-165.25"/>
<text text-anchor="middle" x="411" y="-142.57" font-family="Times,serif" font-size="14.00">linux</text>
</g>
<!-- cluster_linux_connect_node_&#45;&gt;cluster__level2_linux -->
<g id="edge49" class="edge">
<title>cluster_linux_connect_node_&#45;&gt;cluster__level2_linux</title>
<path fill="none" stroke="#000000" stroke-width="2" stroke-opacity="0.066667" d="M372.9,-699.75C381.07,-581.27 404.07,-247.68 409.73,-165.65"/>
</g>
<!-- cluster_initramfs_connect_node_ -->
<g id="node7" class="node">
<title>cluster_initramfs_connect_node_</title>
</g>
<!-- cluster__level1_initramfs -->
<g id="node39" class="node">
<title>cluster__level1_initramfs</title>
<polygon fill="#dae8fc" stroke="#6c8ebf" points="303.62,-237.25 238.38,-237.25 238.38,-201.25 303.62,-201.25 303.62,-237.25"/>
<text text-anchor="middle" x="271" y="-214.57" font-family="Times,serif" font-size="14.00">initramfs</text>
</g>
<!-- cluster_initramfs_connect_node_&#45;&gt;cluster__level1_initramfs -->
<g id="edge48" class="edge">
<title>cluster_initramfs_connect_node_&#45;&gt;cluster__level1_initramfs</title>
<path fill="none" stroke="#000000" stroke-width="2" stroke-opacity="0.066667" d="M381.32,-707.75C358.63,-607.27 292.39,-313.95 275.14,-237.59"/>
</g>
<!-- cluster_base_connect_node_ -->
<g id="node8" class="node">
<title>cluster_base_connect_node_</title>
</g>
<!-- cluster__level1_initramfs_base -->
<g id="node33" class="node">
<title>cluster__level1_initramfs_base</title>
<polygon fill="#dae8fc" stroke="#6c8ebf" points="426.5,-237.25 321.5,-237.25 321.5,-201.25 426.5,-201.25 426.5,-237.25"/>
<text text-anchor="middle" x="374" y="-214.57" font-family="Times,serif" font-size="14.00">initramfs_base</text>
</g>
<!-- cluster_base_connect_node_&#45;&gt;cluster__level1_initramfs_base -->
<g id="edge42" class="edge">
<title>cluster_base_connect_node_&#45;&gt;cluster__level1_initramfs_base</title>
<path fill="none" stroke="#000000" stroke-width="2" stroke-opacity="0.066667" d="M406.31,-715.75C400.33,-623.92 380.3,-316.09 375.19,-237.59"/>
</g>
<!-- cluster_basegen_init_cpio -->
<g id="node9" class="node">
<title>cluster_basegen_init_cpio</title>
<polygon fill="none" stroke="black" points="519.5,-759.75 426.5,-759.75 426.5,-723.75 519.5,-723.75 519.5,-759.75"/>
<text text-anchor="middle" x="473" y="-737.08" font-family="Times,serif" font-size="14.00">gen_init_cpio</text>
</g>
<!-- cluster__level1_gen_init_cpio -->
<g id="node32" class="node">
<title>cluster__level1_gen_init_cpio</title>
<polygon fill="#dae8fc" stroke="#6c8ebf" points="537.5,-237.25 444.5,-237.25 444.5,-201.25 537.5,-201.25 537.5,-237.25"/>
<text text-anchor="middle" x="491" y="-214.57" font-family="Times,serif" font-size="14.00">gen_init_cpio</text>
</g>
<!-- cluster_basegen_init_cpio&#45;&gt;cluster__level1_gen_init_cpio -->
<g id="edge41" class="edge">
<title>cluster_basegen_init_cpio&#45;&gt;cluster__level1_gen_init_cpio</title>
<path fill="none" stroke="#000000" stroke-opacity="0.066667" d="M473.63,-723.46C476.41,-642.72 487.58,-318.65 490.37,-237.66"/>
</g>
<!-- cluster_basecpio_list -->
<g id="node10" class="node">
<title>cluster_basecpio_list</title>
<polygon fill="none" stroke="black" points="596.25,-759.75 537.75,-759.75 537.75,-723.75 596.25,-723.75 596.25,-759.75"/>
<text text-anchor="middle" x="567" y="-737.08" font-family="Times,serif" font-size="14.00">cpio_list</text>
</g>
<!-- cluster_overlays_connect_node_ -->
<g id="node11" class="node">
<title>cluster_overlays_connect_node_</title>
</g>
<!-- cluster__level1_initramfs_overlays -->
<g id="node38" class="node">
<title>cluster__level1_initramfs_overlays</title>
<polygon fill="#dae8fc" stroke="#6c8ebf" points="688,-237.25 556,-237.25 556,-201.25 688,-201.25 688,-237.25"/>
<text text-anchor="middle" x="622" y="-214.57" font-family="Times,serif" font-size="14.00">initramfs_overlays</text>
</g>
<!-- cluster_overlays_connect_node_&#45;&gt;cluster__level1_initramfs_overlays -->
<g id="edge47" class="edge">
<title>cluster_overlays_connect_node_&#45;&gt;cluster__level1_initramfs_overlays</title>
<path fill="none" stroke="#000000" stroke-width="2" stroke-opacity="0.066667" d="M620.1,-715.75C620.45,-623.92 621.63,-316.09 621.93,-237.59"/>
</g>
<!-- cluster_overlaysbusybox -->
<g id="node12" class="node">
<title>cluster_overlaysbusybox</title>
<polygon fill="none" stroke="black" points="697.62,-759.75 638.38,-759.75 638.38,-723.75 697.62,-723.75 697.62,-759.75"/>
<text text-anchor="middle" x="668" y="-737.08" font-family="Times,serif" font-size="14.00">busybox</text>
</g>
<!-- cluster__level1_busybox -->
<g id="node34" class="node">
<title>cluster__level1_busybox</title>
<polygon fill="#dae8fc" stroke="#6c8ebf" points="765.62,-237.25 706.38,-237.25 706.38,-201.25 765.62,-201.25 765.62,-237.25"/>
<text text-anchor="middle" x="736" y="-214.57" font-family="Times,serif" font-size="14.00">busybox</text>
</g>
<!-- cluster_overlaysbusybox&#45;&gt;cluster__level1_busybox -->
<g id="edge43" class="edge">
<title>cluster_overlaysbusybox&#45;&gt;cluster__level1_busybox</title>
<path fill="none" stroke="#000000" stroke-opacity="0.066667" d="M670.38,-723.46C680.89,-642.72 723.06,-318.65 733.6,-237.66"/>
</g>
<!-- cluster_overlaysbefore_workload -->
<g id="node13" class="node">
<title>cluster_overlaysbefore_workload</title>
<polygon fill="none" stroke="black" points="833.88,-759.75 716.12,-759.75 716.12,-723.75 833.88,-723.75 833.88,-759.75"/>
<text text-anchor="middle" x="775" y="-737.08" font-family="Times,serif" font-size="14.00">before_workload</text>
</g>
<!-- cluster__level1_before_workload -->
<g id="node35" class="node">
<title>cluster__level1_before_workload</title>
<polygon fill="#dae8fc" stroke="#6c8ebf" points="901.88,-237.25 784.12,-237.25 784.12,-201.25 901.88,-201.25 901.88,-237.25"/>
<text text-anchor="middle" x="843" y="-214.57" font-family="Times,serif" font-size="14.00">before_workload</text>
</g>
<!-- cluster_overlaysbefore_workload&#45;&gt;cluster__level1_before_workload -->
<g id="edge44" class="edge">
<title>cluster_overlaysbefore_workload&#45;&gt;cluster__level1_before_workload</title>
<path fill="none" stroke="#000000" stroke-opacity="0.066667" d="M777.38,-723.46C787.89,-642.72 830.06,-318.65 840.6,-237.66"/>
</g>
<!-- cluster_overlaysqemu_trap -->
<g id="node14" class="node">
<title>cluster_overlaysqemu_trap</title>
<polygon fill="none" stroke="black" points="928.25,-759.75 851.75,-759.75 851.75,-723.75 928.25,-723.75 928.25,-759.75"/>
<text text-anchor="middle" x="890" y="-737.08" font-family="Times,serif" font-size="14.00">qemu_trap</text>
</g>
<!-- cluster__level1_qemu_trap -->
<g id="node37" class="node">
<title>cluster__level1_qemu_trap</title>
<polygon fill="#dae8fc" stroke="#6c8ebf" points="996.25,-237.25 919.75,-237.25 919.75,-201.25 996.25,-201.25 996.25,-237.25"/>
<text text-anchor="middle" x="958" y="-214.57" font-family="Times,serif" font-size="14.00">qemu_trap</text>
</g>
<!-- cluster_overlaysqemu_trap&#45;&gt;cluster__level1_qemu_trap -->
<g id="edge46" class="edge">
<title>cluster_overlaysqemu_trap&#45;&gt;cluster__level1_qemu_trap</title>
<path fill="none" stroke="#000000" stroke-opacity="0.066667" d="M892.38,-723.46C902.89,-642.72 945.06,-318.65 955.6,-237.66"/>
</g>
<!-- cluster_overlaysnemu_trap -->
<g id="node15" class="node">
<title>cluster_overlaysnemu_trap</title>
<polygon fill="none" stroke="black" points="1023.25,-759.75 946.75,-759.75 946.75,-723.75 1023.25,-723.75 1023.25,-759.75"/>
<text text-anchor="middle" x="985" y="-737.08" font-family="Times,serif" font-size="14.00">nemu_trap</text>
</g>
<!-- cluster__level1_nemu_trap -->
<g id="node36" class="node">
<title>cluster__level1_nemu_trap</title>
<polygon fill="#dae8fc" stroke="#6c8ebf" points="1091.25,-237.25 1014.75,-237.25 1014.75,-201.25 1091.25,-201.25 1091.25,-237.25"/>
<text text-anchor="middle" x="1053" y="-214.57" font-family="Times,serif" font-size="14.00">nemu_trap</text>
</g>
<!-- cluster_overlaysnemu_trap&#45;&gt;cluster__level1_nemu_trap -->
<g id="edge45" class="edge">
<title>cluster_overlaysnemu_trap&#45;&gt;cluster__level1_nemu_trap</title>
<path fill="none" stroke="#000000" stroke-opacity="0.066667" d="M987.38,-723.46C997.89,-642.72 1040.06,-318.65 1050.6,-237.66"/>
</g>
<!-- cluster_overlaysinittab -->
<g id="node16" class="node">
<title>cluster_overlaysinittab</title>
<polygon fill="none" stroke="black" points="1095,-759.75 1041,-759.75 1041,-723.75 1095,-723.75 1095,-759.75"/>
<text text-anchor="middle" x="1068" y="-737.08" font-family="Times,serif" font-size="14.00">inittab</text>
</g>
<!-- cluster_overlaysrun_sh -->
<g id="node17" class="node">
<title>cluster_overlaysrun_sh</title>
<polygon fill="none" stroke="black" points="1167,-759.75 1113,-759.75 1113,-723.75 1167,-723.75 1167,-759.75"/>
<text text-anchor="middle" x="1140" y="-737.08" font-family="Times,serif" font-size="14.00">run.sh</text>
</g>
<!-- cluster_cptBuilder_connect_node_ -->
<g id="node18" class="node">
<title>cluster_cptBuilder_connect_node_</title>
</g>
<!-- cluster_cptBuilderqemu&#45;&gt;cluster_cptBuilderstage1&#45;profiling -->
<g id="edge1" class="edge">
<title>cluster_cptBuilderqemu&#45;&gt;cluster_cptBuilderstage1&#45;profiling</title>
<path fill="none" stroke="#000000" stroke-opacity="0.266667" d="M1123.91,-598.2C1117.35,-590.14 1109.41,-580.39 1102.16,-571.48"/>
<polygon fill="#000000" fill-opacity="0.266667" stroke="#000000" stroke-opacity="0.266667" points="1104.91,-569.32 1095.88,-563.78 1099.48,-573.74 1104.91,-569.32"/>
</g>
<!-- cluster_cptBuilderqemu&#45;&gt;cluster_cptBuilderstage3&#45;checkpoint -->
<g id="edge5" class="edge">
<title>cluster_cptBuilderqemu&#45;&gt;cluster_cptBuilderstage3&#45;checkpoint</title>
<path fill="none" stroke="#000000" stroke-opacity="0.266667" d="M1132.2,-598.08C1120.38,-560.54 1093.42,-474.91 1079.19,-429.7"/>
<polygon fill="#000000" fill-opacity="0.266667" stroke="#000000" stroke-opacity="0.266667" points="1082.58,-428.8 1076.24,-420.31 1075.9,-430.9 1082.58,-428.8"/>
</g>
<!-- cluster__level3_qemu -->
<g id="node48" class="node">
<title>cluster__level3_qemu</title>
<polygon fill="#f8cecc" stroke="#b85450" points="1038,-93.25 984,-93.25 984,-57.25 1038,-57.25 1038,-93.25"/>
<text text-anchor="middle" x="1011" y="-70.58" font-family="Times,serif" font-size="14.00">qemu</text>
</g>
<!-- cluster_cptBuilderqemu&#45;&gt;cluster__level3_qemu -->
<g id="edge55" class="edge">
<title>cluster_cptBuilderqemu&#45;&gt;cluster__level3_qemu</title>
<path fill="none" stroke="#000000" stroke-opacity="0.066667" d="M1133.7,-598.18C1114.27,-515.36 1034.73,-176.37 1015.3,-93.56"/>
</g>
<!-- cluster_cptBuildernemu -->
<g id="node20" class="node">
<title>cluster_cptBuildernemu</title>
<polygon fill="none" stroke="black" points="1237,-634.5 1183,-634.5 1183,-598.5 1237,-598.5 1237,-634.5"/>
<text text-anchor="middle" x="1210" y="-611.83" font-family="Times,serif" font-size="14.00">nemu</text>
</g>
<!-- cluster_cptBuildernemu&#45;&gt;cluster_cptBuilderstage1&#45;profiling -->
<g id="edge2" class="edge">
<title>cluster_cptBuildernemu&#45;&gt;cluster_cptBuilderstage1&#45;profiling</title>
<path fill="none" stroke="#000000" stroke-opacity="0.266667" d="M1182.64,-600.65C1165.26,-591.22 1142.42,-578.83 1122.79,-568.18"/>
<polygon fill="#000000" fill-opacity="0.266667" stroke="#000000" stroke-opacity="0.266667" points="1124.66,-565.21 1114.2,-563.51 1121.32,-571.36 1124.66,-565.21"/>
</g>
<!-- cluster_cptBuildernemu&#45;&gt;cluster_cptBuilderstage3&#45;checkpoint -->
<g id="edge6" class="edge">
<title>cluster_cptBuildernemu&#45;&gt;cluster_cptBuilderstage3&#45;checkpoint</title>
<path fill="none" stroke="#000000" stroke-opacity="0.266667" d="M1198.06,-598.08C1173.47,-560.14 1117.05,-473.08 1088,-428.27"/>
<polygon fill="#000000" fill-opacity="0.266667" stroke="#000000" stroke-opacity="0.266667" points="1091.11,-426.63 1082.73,-420.14 1085.23,-430.43 1091.11,-426.63"/>
</g>
<!-- cluster__level3_nemu -->
<g id="node47" class="node">
<title>cluster__level3_nemu</title>
<polygon fill="#f8cecc" stroke="#b85450" points="1110,-93.25 1056,-93.25 1056,-57.25 1110,-57.25 1110,-93.25"/>
<text text-anchor="middle" x="1083" y="-70.58" font-family="Times,serif" font-size="14.00">nemu</text>
</g>
<!-- cluster_cptBuildernemu&#45;&gt;cluster__level3_nemu -->
<g id="edge54" class="edge">
<title>cluster_cptBuildernemu&#45;&gt;cluster__level3_nemu</title>
<path fill="none" stroke="#000000" stroke-opacity="0.066667" d="M1205.7,-598.18C1186.27,-515.36 1106.73,-176.37 1087.3,-93.56"/>
</g>
<!-- cluster_cptBuilderstage2&#45;cluster -->
<g id="node23" class="node">
<title>cluster_cptBuilderstage2&#45;cluster</title>
<polygon fill="none" stroke="black" points="1237,-490.5 1135,-490.5 1135,-454.5 1237,-454.5 1237,-490.5"/>
<text text-anchor="middle" x="1186" y="-467.82" font-family="Times,serif" font-size="14.00">stage2&#45;cluster</text>
</g>
<!-- cluster_cptBuilderstage1&#45;profiling&#45;&gt;cluster_cptBuilderstage2&#45;cluster -->
<g id="edge4" class="edge">
<title>cluster_cptBuilderstage1&#45;profiling&#45;&gt;cluster_cptBuilderstage2&#45;cluster</title>
<path fill="none" stroke="#000000" stroke-opacity="0.266667" d="M1107.23,-526.02C1120.35,-517.26 1136.43,-506.54 1150.64,-497.08"/>
<polygon fill="#000000" fill-opacity="0.266667" stroke="#000000" stroke-opacity="0.266667" points="1152.47,-500.06 1158.85,-491.6 1148.59,-494.23 1152.47,-500.06"/>
</g>
<!-- cluster__level3_stage1&#45;profiling -->
<g id="node50" class="node">
<title>cluster__level3_stage1&#45;profiling</title>
<polygon fill="#f8cecc" stroke="#b85450" points="886.25,-93.25 773.75,-93.25 773.75,-57.25 886.25,-57.25 886.25,-93.25"/>
<text text-anchor="middle" x="830" y="-70.58" font-family="Times,serif" font-size="14.00">stage1&#45;profiling</text>
</g>
<!-- cluster_cptBuilderstage1&#45;profiling&#45;&gt;cluster__level3_stage1&#45;profiling -->
<g id="edge57" class="edge">
<title>cluster_cptBuilderstage1&#45;profiling&#45;&gt;cluster__level3_stage1&#45;profiling</title>
<path fill="none" stroke="#000000" stroke-opacity="0.066667" d="M1071.16,-526.1C1031.01,-451.04 879.8,-168.35 839.77,-93.52"/>
</g>
<!-- cluster_cptBuildersimpoint -->
<g id="node22" class="node">
<title>cluster_cptBuildersimpoint</title>
<polygon fill="none" stroke="black" points="1237.12,-562.5 1174.88,-562.5 1174.88,-526.5 1237.12,-526.5 1237.12,-562.5"/>
<text text-anchor="middle" x="1206" y="-539.83" font-family="Times,serif" font-size="14.00">simpoint</text>
</g>
<!-- cluster_cptBuildersimpoint&#45;&gt;cluster_cptBuilderstage2&#45;cluster -->
<g id="edge3" class="edge">
<title>cluster_cptBuildersimpoint&#45;&gt;cluster_cptBuilderstage2&#45;cluster</title>
<path fill="none" stroke="#000000" stroke-opacity="0.266667" d="M1201.06,-526.2C1198.92,-518.74 1196.38,-509.82 1193.99,-501.47"/>
<polygon fill="#000000" fill-opacity="0.266667" stroke="#000000" stroke-opacity="0.266667" points="1197.42,-500.71 1191.3,-492.06 1190.68,-502.64 1197.42,-500.71"/>
</g>
<!-- cluster__level3_simpoint -->
<g id="node49" class="node">
<title>cluster__level3_simpoint</title>
<polygon fill="#f8cecc" stroke="#b85450" points="966.12,-93.25 903.88,-93.25 903.88,-57.25 966.12,-57.25 966.12,-93.25"/>
<text text-anchor="middle" x="935" y="-70.58" font-family="Times,serif" font-size="14.00">simpoint</text>
</g>
<!-- cluster_cptBuildersimpoint&#45;&gt;cluster__level3_simpoint -->
<g id="edge56" class="edge">
<title>cluster_cptBuildersimpoint&#45;&gt;cluster__level3_simpoint</title>
<path fill="none" stroke="#000000" stroke-opacity="0.066667" d="M1195.38,-526.1C1152.02,-451.04 988.77,-168.35 945.55,-93.52"/>
</g>
<!-- cluster_cptBuilderstage2&#45;cluster&#45;&gt;cluster_cptBuilderstage3&#45;checkpoint -->
<g id="edge7" class="edge">
<title>cluster_cptBuilderstage2&#45;cluster&#45;&gt;cluster_cptBuilderstage3&#45;checkpoint</title>
<path fill="none" stroke="#000000" stroke-opacity="0.266667" d="M1157.03,-454.02C1142.25,-445.1 1124.07,-434.13 1108.17,-424.53"/>
<polygon fill="#000000" fill-opacity="0.266667" stroke="#000000" stroke-opacity="0.266667" points="1110.27,-421.71 1099.9,-419.54 1106.65,-427.71 1110.27,-421.71"/>
</g>
<!-- cluster__level3_stage2&#45;cluster -->
<g id="node51" class="node">
<title>cluster__level3_stage2&#45;cluster</title>
<polygon fill="#f8cecc" stroke="#b85450" points="756,-93.25 654,-93.25 654,-57.25 756,-57.25 756,-93.25"/>
<text text-anchor="middle" x="705" y="-70.58" font-family="Times,serif" font-size="14.00">stage2&#45;cluster</text>
</g>
<!-- cluster_cptBuilderstage2&#45;cluster&#45;&gt;cluster__level3_stage2&#45;cluster -->
<g id="edge58" class="edge">
<title>cluster_cptBuilderstage2&#45;cluster&#45;&gt;cluster__level3_stage2&#45;cluster</title>
<path fill="none" stroke="#000000" stroke-opacity="0.066667" d="M1163.77,-454.14C1083.3,-387.68 807.81,-160.16 727.28,-93.65"/>
</g>
<!-- cluster_output_connect_node_ -->
<g id="node28" class="node">
<title>cluster_output_connect_node_</title>
</g>
<!-- cluster_cptBuilderstage3&#45;checkpoint&#45;&gt;cluster_output_connect_node_ -->
<g id="edge39" class="edge">
<title>cluster_cptBuilderstage3&#45;checkpoint&#45;&gt;cluster_output_connect_node_</title>
<path fill="none" stroke="#000000" stroke-opacity="0.266667" d="M1057.63,-382.27C1052.97,-375.78 1047.35,-367.95 1041.39,-359.65"/>
<polygon fill="#000000" fill-opacity="0.266667" stroke="#000000" stroke-opacity="0.266667" points="1044.38,-357.81 1035.7,-351.73 1038.69,-361.89 1044.38,-357.81"/>
</g>
<!-- cluster__level0_benchmark -->
<g id="node30" class="node">
<title>cluster__level0_benchmark</title>
<polygon fill="#d5e8d4" stroke="#82b366" points="1109.75,-309.25 1030.25,-309.25 1030.25,-273.25 1109.75,-273.25 1109.75,-309.25"/>
<text text-anchor="middle" x="1070" y="-286.57" font-family="Times,serif" font-size="14.00">benchmark</text>
</g>
<!-- cluster_cptBuilderstage3&#45;checkpoint&#45;&gt;cluster__level0_benchmark -->
<g id="edge62" class="edge">
<title>cluster_cptBuilderstage3&#45;checkpoint&#45;&gt;cluster__level0_benchmark</title>
<path fill="none" stroke="none" d="M1049.54,-382.27C1042.25,-365.54 1041.05,-339.86 1045.96,-320.2"/>
<polygon fill="none" stroke="none" points="1049.23,-321.47 1049.08,-310.87 1042.59,-319.25 1049.23,-321.47"/>
</g>
<!-- cluster_cptBuilderstage3&#45;checkpoint&#45;&gt;cluster__level0_benchmark -->
<g id="edge63" class="edge">
<title>cluster_cptBuilderstage3&#45;checkpoint&#45;&gt;cluster__level0_benchmark</title>
<path fill="none" stroke="none" d="M1059.77,-382.27C1056.16,-365.69 1055.54,-340.34 1057.91,-320.76"/>
<polygon fill="none" stroke="none" points="1061.36,-321.37 1059.53,-310.93 1054.45,-320.23 1061.36,-321.37"/>
</g>
<!-- cluster_cptBuilderstage3&#45;checkpoint&#45;&gt;cluster__level0_benchmark -->
<g id="edge64" class="edge">
<title>cluster_cptBuilderstage3&#45;checkpoint&#45;&gt;cluster__level0_benchmark</title>
<path fill="none" stroke="none" d="M1070,-382.27C1070,-365.69 1070,-340.34 1070,-320.76"/>
<polygon fill="none" stroke="none" points="1073.5,-320.95 1070,-310.95 1066.5,-320.95 1073.5,-320.95"/>
</g>
<!-- cluster_cptBuilderstage3&#45;checkpoint&#45;&gt;cluster__level0_benchmark -->
<g id="edge65" class="edge">
<title>cluster_cptBuilderstage3&#45;checkpoint&#45;&gt;cluster__level0_benchmark</title>
<path fill="none" stroke="none" d="M1080.23,-382.27C1083.84,-365.69 1084.46,-340.34 1082.09,-320.76"/>
<polygon fill="none" stroke="none" points="1085.55,-320.23 1080.47,-310.93 1078.64,-321.37 1085.55,-320.23"/>
</g>
<!-- cluster_cptBuilderstage3&#45;checkpoint&#45;&gt;cluster__level0_benchmark -->
<g id="edge66" class="edge">
<title>cluster_cptBuilderstage3&#45;checkpoint&#45;&gt;cluster__level0_benchmark</title>
<path fill="none" stroke="none" d="M1090.46,-382.27C1097.75,-365.54 1098.95,-339.86 1094.04,-320.2"/>
<polygon fill="none" stroke="none" points="1097.41,-319.25 1090.92,-310.87 1090.77,-321.47 1097.41,-319.25"/>
</g>
<!-- cluster__level3_stage3&#45;checkpoint -->
<g id="node52" class="node">
<title>cluster__level3_stage3&#45;checkpoint</title>
<polygon fill="#f8cecc" stroke="#b85450" points="635.88,-93.25 506.12,-93.25 506.12,-57.25 635.88,-57.25 635.88,-93.25"/>
<text text-anchor="middle" x="571" y="-70.58" font-family="Times,serif" font-size="14.00">stage3&#45;checkpoint</text>
</g>
<!-- cluster_cptBuilderstage3&#45;checkpoint&#45;&gt;cluster__level3_stage3&#45;checkpoint -->
<g id="edge59" class="edge">
<title>cluster_cptBuilderstage3&#45;checkpoint&#45;&gt;cluster__level3_stage3&#45;checkpoint</title>
<path fill="none" stroke="#000000" stroke-opacity="0.066667" d="M1041.74,-382.08C954.02,-324.9 686.98,-150.85 599.26,-93.67"/>
</g>
<!-- cluster__level3_cpts&#45;simpoint -->
<g id="node53" class="node">
<title>cluster__level3_cpts&#45;simpoint</title>
<polygon fill="#f8cecc" stroke="#b85450" points="488.38,-93.25 391.62,-93.25 391.62,-57.25 488.38,-57.25 488.38,-93.25"/>
<text text-anchor="middle" x="440" y="-70.58" font-family="Times,serif" font-size="14.00">cpts&#45;simpoint</text>
</g>
<!-- cluster_cptBuilderstage3&#45;checkpoint&#45;&gt;cluster__level3_cpts&#45;simpoint -->
<g id="edge60" class="edge">
<title>cluster_cptBuilderstage3&#45;checkpoint&#45;&gt;cluster__level3_cpts&#45;simpoint</title>
<path fill="none" stroke="#000000" stroke-opacity="0.066667" d="M1034.32,-382.08C923.57,-324.9 586.43,-150.85 475.67,-93.67"/>
</g>
<!-- cluster_inputs_connect_node_ -->
<g id="node25" class="node">
<title>cluster_inputs_connect_node_</title>
</g>
<!-- cluster_inputsbenchmark -->
<g id="node26" class="node">
<title>cluster_inputsbenchmark</title>
<polygon fill="#d5e8d4" stroke="#82b366" points="1179.75,-1044.5 1100.25,-1044.5 1100.25,-1008.5 1179.75,-1008.5 1179.75,-1044.5"/>
<text text-anchor="middle" x="1140" y="-1021.83" font-family="Times,serif" font-size="14.00">benchmark</text>
</g>
<!-- cluster_inputsbenchmark&#45;&gt;cluster_initramfs_connect_node_ -->
<g id="edge38" class="edge">
<title>cluster_inputsbenchmark&#45;&gt;cluster_initramfs_connect_node_</title>
<path fill="none" stroke="#82b366" d="M1099.89,-1010.4C1011.25,-977.03 792.97,-894.85 621.49,-830.28"/>
<polygon fill="#82b366" stroke="#82b366" points="622.79,-827.03 612.19,-826.78 620.32,-833.58 622.79,-827.03"/>
</g>
<!-- cluster_inputsbenchmark&#45;&gt;cluster_overlaysrun_sh -->
<g id="edge37" class="edge">
<title>cluster_inputsbenchmark&#45;&gt;cluster_overlaysrun_sh</title>
<path fill="none" stroke="#82b366" d="M1140,-1008.24C1140,-961.11 1140,-829.89 1140,-771.45"/>
<polygon fill="#82b366" stroke="#82b366" points="1143.5,-771.66 1140,-761.66 1136.5,-771.66 1143.5,-771.66"/>
</g>
<!-- cluster_inputsbenchmark&#45;&gt;cluster__level0_benchmark -->
<g id="edge40" class="edge">
<title>cluster_inputsbenchmark&#45;&gt;cluster__level0_benchmark</title>
<path fill="none" stroke="#82b366" stroke-opacity="0.066667" d="M1138.27,-1008.33C1128.61,-906.82 1081.4,-411.01 1071.73,-309.45"/>
</g>
<!-- cluster_outputs_connect_node_ -->
<g id="node27" class="node">
<title>cluster_outputs_connect_node_</title>
</g>
<!-- cluster__level0__connect_node_ -->
<g id="node29" class="node">
<title>cluster__level0__connect_node_</title>
</g>
<!-- cluster__level1__connect_node_ -->
<g id="node31" class="node">
<title>cluster__level1__connect_node_</title>
</g>
<!-- cluster__level0__connect_node_&#45;&gt;cluster__level1__connect_node_ -->
<g id="edge10" class="edge">
<title>cluster__level0__connect_node_&#45;&gt;cluster__level1__connect_node_</title>
<path fill="none" stroke="none" stroke-width="2" d="M1047,-265.25C1052.67,-261.2 1058.62,-256.95 1064.51,-252.75"/>
<polygon fill="none" stroke="none" stroke-width="2" points="1066.44,-255.67 1072.54,-247 1062.37,-249.97 1066.44,-255.67"/>
</g>
<!-- cluster__level2__connect_node_ -->
<g id="node40" class="node">
<title>cluster__level2__connect_node_</title>
</g>
<!-- cluster__level1__connect_node_&#45;&gt;cluster__level2__connect_node_ -->
<g id="edge11" class="edge">
<title>cluster__level1__connect_node_&#45;&gt;cluster__level2__connect_node_</title>
<path fill="none" stroke="none" stroke-width="2" d="M902.17,-193.25C805.92,-181.68 696.41,-168.51 620.85,-159.42"/>
<polygon fill="none" stroke="none" stroke-width="2" points="621.35,-155.95 611,-158.23 620.51,-162.9 621.35,-155.95"/>
</g>
<!-- cluster__level3__connect_node_ -->
<g id="node46" class="node">
<title>cluster__level3__connect_node_</title>
</g>
<!-- cluster__level2__connect_node_&#45;&gt;cluster__level3__connect_node_ -->
<g id="edge13" class="edge">
<title>cluster__level2__connect_node_&#45;&gt;cluster__level3__connect_node_</title>
<path fill="none" stroke="none" stroke-width="2" d="M472.65,-121.25C462.06,-116.47 450.87,-111.42 439.97,-106.49"/>
<polygon fill="none" stroke="none" stroke-width="2" points="441.66,-103.42 431.11,-102.49 438.78,-109.8 441.66,-103.42"/>
</g>
<!-- cluster_outputsoverrideScope -->
<g id="node54" class="node">
<title>cluster_outputsoverrideScope</title>
<ellipse fill="none" stroke="black" stroke-width="2" cx="115" cy="-75.25" rx="99.11" ry="18"/>
<text text-anchor="middle" x="115" y="-68.25" font-family="Times,serif" font-size="20.00">overrideScope</text>
</g>
<!-- cluster__level2_dts&#45;&gt;cluster_outputsoverrideScope -->
<g id="edge15" class="edge">
<title>cluster__level2_dts&#45;&gt;cluster_outputsoverrideScope</title>
<path fill="none" stroke="none" d="M311.53,-137.67C277.82,-127.13 219.69,-108.97 175.37,-95.11"/>
<polygon fill="none" stroke="none" points="176.45,-91.79 165.86,-92.14 174.36,-98.47 176.45,-91.79"/>
</g>
<!-- cluster__level3_stage3&#45;checkpoint&#45;&gt;cluster__level3_cpts&#45;simpoint -->
<g id="edge12" class="edge">
<title>cluster__level3_stage3&#45;checkpoint&#45;&gt;cluster__level3_cpts&#45;simpoint</title>
<path fill="none" stroke="#b85450" d="M505.87,-77.25C500.2,-77.25 494.54,-77.25 488.87,-77.25"/>
<path fill="none" stroke="none" d="M505.87,-75.25C500.2,-75.25 494.54,-75.25 488.87,-75.25"/>
<path fill="none" stroke="#b85450" d="M505.87,-73.25C500.2,-73.25 494.54,-73.25 488.87,-73.25"/>
</g>
<!-- cluster_outputsoverrideScope&#45;&gt;cluster_output_connect_node_ -->
<g id="edge14" class="edge">
<title>cluster_outputsoverrideScope&#45;&gt;cluster_output_connect_node_</title>
<path fill="none" stroke="black" stroke-width="2" d="M175.84,-90.22C186,-92.72 197.26,-95.49 209.47,-98.49"/>
<polygon fill="black" stroke="black" stroke-width="2" points="208.52,-101.86 219.06,-100.85 210.19,-95.06 208.52,-101.86"/>
</g>
<!-- cluster_outputsoverride -->
<g id="node55" class="node">
<title>cluster_outputsoverride</title>
<ellipse fill="none" stroke="black" cx="1314" cy="-291.25" rx="34.18" ry="18"/>
<text text-anchor="middle" x="1314" y="-286.57" font-family="Times,serif" font-size="14.00">override</text>
</g>
<!-- cluster_outputsoverride&#45;&gt;cluster__level0_benchmark -->
<g id="edge17" class="edge">
<title>cluster_outputsoverride&#45;&gt;cluster__level0_benchmark</title>
<path fill="none" stroke="#000000" stroke-opacity="0.133333" d="M1279.34,-291.25C1226.65,-291.25 1173.96,-291.25 1121.27,-291.25"/>
<polygon fill="#000000" fill-opacity="0.133333" stroke="#000000" stroke-opacity="0.133333" points="1121.54,-287.75 1111.54,-291.25 1121.54,-294.75 1121.54,-287.75"/>
</g>
<!-- cluster_outputsoverride&#45;&gt;cluster__level1_gen_init_cpio -->
<g id="edge22" class="edge">
<title>cluster_outputsoverride&#45;&gt;cluster__level1_gen_init_cpio</title>
<path fill="none" stroke="#000000" stroke-opacity="0.133333" d="M1280.2,-287.38C1153.93,-276.63 708.87,-238.78 548.85,-225.17"/>
<polygon fill="#000000" fill-opacity="0.133333" stroke="#000000" stroke-opacity="0.133333" points="549.6,-221.72 539.34,-224.36 549,-228.7 549.6,-221.72"/>
</g>
<!-- cluster_outputsoverride&#45;&gt;cluster__level1_initramfs_base -->
<g id="edge25" class="edge">
<title>cluster_outputsoverride&#45;&gt;cluster__level1_initramfs_base</title>
<path fill="none" stroke="#000000" stroke-opacity="0.133333" d="M1279.99,-287.72C1141.83,-277.43 621.28,-238.66 438.18,-225.03"/>
<polygon fill="#000000" fill-opacity="0.133333" stroke="#000000" stroke-opacity="0.133333" points="438.62,-221.55 428.38,-224.3 438.1,-228.53 438.62,-221.55"/>
</g>
<!-- cluster_outputsoverride&#45;&gt;cluster__level1_busybox -->
<g id="edge18" class="edge">
<title>cluster_outputsoverride&#45;&gt;cluster__level1_busybox</title>
<path fill="none" stroke="#000000" stroke-opacity="0.133333" d="M1280.85,-286.24C1181.44,-274.2 886.03,-238.42 777.01,-225.22"/>
<polygon fill="#000000" fill-opacity="0.133333" stroke="#000000" stroke-opacity="0.133333" points="777.71,-221.78 767.36,-224.05 776.86,-228.72 777.71,-221.78"/>
</g>
<!-- cluster_outputsoverride&#45;&gt;cluster__level1_before_workload -->
<g id="edge16" class="edge">
<title>cluster_outputsoverride&#45;&gt;cluster__level1_before_workload</title>
<path fill="none" stroke="#000000" stroke-opacity="0.133333" d="M1281.25,-285.38C1205.55,-274.13 1016.99,-246.11 913.59,-230.74"/>
<polygon fill="#000000" fill-opacity="0.133333" stroke="#000000" stroke-opacity="0.133333" points="914.24,-227.3 903.83,-229.29 913.21,-234.22 914.24,-227.3"/>
</g>
<!-- cluster_outputsoverride&#45;&gt;cluster__level1_nemu_trap -->
<g id="edge29" class="edge">
<title>cluster_outputsoverride&#45;&gt;cluster__level1_nemu_trap</title>
<path fill="none" stroke="#000000" stroke-opacity="0.133333" d="M1283.81,-282.15C1239.33,-270.22 1155.72,-247.8 1102.28,-233.47"/>
<polygon fill="#000000" fill-opacity="0.133333" stroke="#000000" stroke-opacity="0.133333" points="1103.39,-230.14 1092.82,-230.93 1101.57,-236.9 1103.39,-230.14"/>
</g>
<!-- cluster_outputsoverride&#45;&gt;cluster__level1_qemu_trap -->
<g id="edge32" class="edge">
<title>cluster_outputsoverride&#45;&gt;cluster__level1_qemu_trap</title>
<path fill="none" stroke="#000000" stroke-opacity="0.133333" d="M1282.41,-284.04C1220.33,-271.83 1082.04,-244.64 1007.65,-230.01"/>
<polygon fill="#000000" fill-opacity="0.133333" stroke="#000000" stroke-opacity="0.133333" points="1008.69,-226.65 998.2,-228.15 1007.34,-233.52 1008.69,-226.65"/>
</g>
<!-- cluster_outputsoverride&#45;&gt;cluster__level1_initramfs_overlays -->
<g id="edge26" class="edge">
<title>cluster_outputsoverride&#45;&gt;cluster__level1_initramfs_overlays</title>
<path fill="none" stroke="#000000" stroke-opacity="0.133333" d="M1280.62,-286.87C1175.64,-276.25 850.2,-243.33 699.74,-228.11"/>
<polygon fill="#000000" fill-opacity="0.133333" stroke="#000000" stroke-opacity="0.133333" points="700.15,-224.64 689.85,-227.11 699.44,-231.6 700.15,-224.64"/>
</g>
<!-- cluster_outputsoverride&#45;&gt;cluster__level1_initramfs -->
<g id="edge24" class="edge">
<title>cluster_outputsoverride&#45;&gt;cluster__level1_initramfs</title>
<path fill="none" stroke="#000000" stroke-opacity="0.133333" d="M1279.89,-287.96C1125.19,-277.58 489.55,-234.92 315.33,-223.23"/>
<polygon fill="#000000" fill-opacity="0.133333" stroke="#000000" stroke-opacity="0.133333" points="315.79,-219.75 305.58,-222.57 315.32,-226.73 315.79,-219.75"/>
</g>
<!-- cluster_outputsoverride&#45;&gt;cluster__level2_linux -->
<g id="edge27" class="edge">
<title>cluster_outputsoverride&#45;&gt;cluster__level2_linux</title>
<path fill="none" stroke="#000000" stroke-opacity="0.133333" d="M1280.79,-285.95C1140.76,-263.62 598.85,-177.21 449.37,-153.37"/>
<polygon fill="#000000" fill-opacity="0.133333" stroke="#000000" stroke-opacity="0.133333" points="450.03,-149.93 439.6,-151.81 448.93,-156.84 450.03,-149.93"/>
</g>
<!-- cluster_outputsoverride&#45;&gt;cluster__level2_dts -->
<g id="edge20" class="edge">
<title>cluster_outputsoverride&#45;&gt;cluster__level2_dts</title>
<path fill="none" stroke="#000000" stroke-opacity="0.133333" d="M1280.72,-286.33C1132.73,-264.48 534.78,-176.17 377.21,-152.89"/>
<polygon fill="#000000" fill-opacity="0.133333" stroke="#000000" stroke-opacity="0.133333" points="378.13,-149.49 367.72,-151.49 377.1,-156.42 378.13,-149.49"/>
</g>
<!-- cluster_outputsoverride&#45;&gt;cluster__level2_opensbi -->
<g id="edge30" class="edge">
<title>cluster_outputsoverride&#45;&gt;cluster__level2_opensbi</title>
<path fill="none" stroke="#000000" stroke-opacity="0.133333" d="M1280.61,-286.66C1125.13,-265.3 472.59,-175.64 305.24,-152.64"/>
<polygon fill="#000000" fill-opacity="0.133333" stroke="#000000" stroke-opacity="0.133333" points="305.93,-149.2 295.54,-151.31 304.97,-156.14 305.93,-149.2"/>
</g>
<!-- cluster_outputsoverride&#45;&gt;cluster__level2_gcpt -->
<g id="edge21" class="edge">
<title>cluster_outputsoverride&#45;&gt;cluster__level2_gcpt</title>
<path fill="none" stroke="#000000" stroke-opacity="0.133333" d="M1281.17,-285.56C1149.73,-262.78 661.8,-178.23 521.16,-153.86"/>
<polygon fill="#000000" fill-opacity="0.133333" stroke="#000000" stroke-opacity="0.133333" points="522.08,-150.47 511.63,-152.21 520.89,-157.37 522.08,-150.47"/>
</g>
<!-- cluster_outputsoverride&#45;&gt;cluster__level2_img -->
<g id="edge23" class="edge">
<title>cluster_outputsoverride&#45;&gt;cluster__level2_img</title>
<path fill="none" stroke="#000000" stroke-opacity="0.133333" d="M1281.68,-284.97C1161.61,-261.64 741.42,-179.98 611.55,-154.74"/>
<polygon fill="#000000" fill-opacity="0.133333" stroke="#000000" stroke-opacity="0.133333" points="612.22,-151.31 601.73,-152.83 610.88,-158.18 612.22,-151.31"/>
</g>
<!-- cluster_outputsoverride&#45;&gt;cluster__level3_nemu -->
<g id="edge28" class="edge">
<title>cluster_outputsoverride&#45;&gt;cluster__level3_nemu</title>
<path fill="none" stroke="#000000" stroke-opacity="0.133333" d="M1297.01,-275.37C1257.5,-238.42 1159.11,-146.42 1110.74,-101.19"/>
<polygon fill="#000000" fill-opacity="0.133333" stroke="#000000" stroke-opacity="0.133333" points="1113.39,-98.88 1103.7,-94.6 1108.61,-103.99 1113.39,-98.88"/>
</g>
<!-- cluster_outputsoverride&#45;&gt;cluster__level3_qemu -->
<g id="edge31" class="edge">
<title>cluster_outputsoverride&#45;&gt;cluster__level3_qemu</title>
<path fill="none" stroke="#000000" stroke-opacity="0.133333" d="M1293.65,-276.74C1242.79,-240.48 1109.65,-145.58 1045.95,-100.16"/>
<polygon fill="#000000" fill-opacity="0.133333" stroke="#000000" stroke-opacity="0.133333" points="1048.11,-97.41 1037.94,-94.45 1044.05,-103.11 1048.11,-97.41"/>
</g>
<!-- cluster_outputsoverride&#45;&gt;cluster__level3_simpoint -->
<g id="edge33" class="edge">
<title>cluster_outputsoverride&#45;&gt;cluster__level3_simpoint</title>
<path fill="none" stroke="#000000" stroke-opacity="0.133333" d="M1290.58,-277.9C1227.9,-242.18 1055.7,-144.04 976.21,-98.74"/>
<polygon fill="#000000" fill-opacity="0.133333" stroke="#000000" stroke-opacity="0.133333" points="978.27,-95.88 967.85,-93.97 974.8,-101.96 978.27,-95.88"/>
</g>
<!-- cluster_outputsoverride&#45;&gt;cluster__level3_stage1&#45;profiling -->
<g id="edge34" class="edge">
<title>cluster_outputsoverride&#45;&gt;cluster__level3_stage1&#45;profiling</title>
<path fill="none" stroke="#000000" stroke-opacity="0.133333" d="M1287.63,-279.48C1210.47,-245.05 984.11,-144.02 881.55,-98.26"/>
<polygon fill="#000000" fill-opacity="0.133333" stroke="#000000" stroke-opacity="0.133333" points="883.08,-95.11 872.52,-94.23 880.23,-101.5 883.08,-95.11"/>
</g>
<!-- cluster_outputsoverride&#45;&gt;cluster__level3_stage2&#45;cluster -->
<g id="edge35" class="edge">
<title>cluster_outputsoverride&#45;&gt;cluster__level3_stage2&#45;cluster</title>
<path fill="none" stroke="#000000" stroke-opacity="0.133333" d="M1285.44,-281.12C1192.35,-248.1 896.22,-143.07 766.67,-97.12"/>
<polygon fill="#000000" fill-opacity="0.133333" stroke="#000000" stroke-opacity="0.133333" points="768.17,-93.94 757.57,-93.9 765.83,-100.54 768.17,-93.94"/>
</g>
<!-- cluster_outputsoverride&#45;&gt;cluster__level3_stage3&#45;checkpoint -->
<g id="edge36" class="edge">
<title>cluster_outputsoverride&#45;&gt;cluster__level3_stage3&#45;checkpoint</title>
<path fill="none" stroke="#000000" stroke-opacity="0.133333" d="M1283.95,-282.52C1175.87,-251.09 804.83,-143.23 645.1,-96.79"/>
<polygon fill="#000000" fill-opacity="0.133333" stroke="#000000" stroke-opacity="0.133333" points="646.46,-93.54 635.89,-94.11 644.51,-100.27 646.46,-93.54"/>
</g>
<!-- cluster_outputsoverride&#45;&gt;cluster__level3_cpts&#45;simpoint -->
<g id="edge19" class="edge">
<title>cluster_outputsoverride&#45;&gt;cluster__level3_cpts&#45;simpoint</title>
<path fill="none" stroke="#000000" stroke-opacity="0.133333" d="M1282.64,-283.5C1154.56,-251.85 669.99,-132.09 499.65,-89.99"/>
<polygon fill="#000000" fill-opacity="0.133333" stroke="#000000" stroke-opacity="0.133333" points="500.67,-86.64 490.13,-87.64 498.99,-93.44 500.67,-86.64"/>
</g>
</g>
</svg>
